# xmcd CD database file
#
# Track frame offsets:
#	150
#	23875
#	58987
#	77562
#	105012
#	130835
#	154785
#	183885
#	209767
#	227162
#	250917
#
# Disc length: 3708 seconds
#
# Revision: 0
# Processed by: cddbd v1.5.2PL0 Copyright (c) Steve Scherf et al.
# Submitted via: CDex 1.51
#
DISCID=8b0e7a0b
DTITLE=DePaul University Jazz Ensemble - Legacy
DYEAR=2001
DGENRE=Jazz
TTITLE0=A Night in Tunisia
TTITLE1=You Know I Care
TTITLE2=Fragmented Dimensions
TTITLE3=Old Country
TTITLE4=Joy Spring
TTITLE5=Summertime
TTITLE6=Your're My Evertyhing
TTITLE7=Brush Taps
TTITLE8=Boston Express
TTITLE9=LOROELMA
TTITLE10=Legacy
EXTD=YEAR: 2001
EXTT0=
EXTT1=
EXTT2=
EXTT3=
EXTT4=
EXTT5=
EXTT6=
EXTT7=
EXTT8=
EXTT9=
EXTT10=
PLAYORDER=
